<svg width="23" height="23" viewBox="0 0 23 23" fill="none" xmlns="http://www.w3.org/2000/svg">
<path d="M18.5689 6.92032C19.6996 7.56838 20.644 8.4972 21.3107 9.61698C21.9774 10.7368 22.344 12.0096 22.3749 13.3125C22.3817 14.8355 21.894 16.3197 20.9852 17.5419L22.3749 22.375L17.5418 20.2847C16.2105 20.8752 14.7688 21.1757 13.3124 21.1663C11.5067 21.2331 9.7226 20.7563 8.19094 19.7978C6.65928 18.8392 5.45062 17.4429 4.72144 15.7897" fill="white"/>
<path d="M18.7499 8.47936C18.7499 12.8172 14.6899 16.3331 9.68744 16.3331C8.23108 16.3426 6.78938 16.0421 5.45809 15.4515L4.67277 15.7897L0.624945 17.5413L2.01463 12.7081C1.10593 11.4861 0.618289 10.0022 0.624945 8.47936C0.624945 4.14096 4.68495 0.625 9.68744 0.625C14.074 0.625 17.7349 3.33186 18.569 6.92032C18.6908 7.43072 18.7511 7.95446 18.7499 8.47936Z" fill="white" stroke="#222222" stroke-linecap="round" stroke-linejoin="round"/>
</svg>
