<svg width="25" height="22" viewBox="0 0 25 22" fill="none" xmlns="http://www.w3.org/2000/svg">
<path d="M24.9934 10.9764C24.9934 11.7497 24.3422 12.3554 23.6042 12.3554H22.2149L22.2453 19.2376C22.2453 19.3536 22.2367 19.4696 22.2236 19.5856V20.2816C22.2236 21.231 21.4465 22 20.4871 22H19.7924C19.7447 22 19.6969 22 19.6492 21.9957C19.5884 22 19.5276 22 19.4668 22L18.0559 21.9957H17.0139C16.0545 21.9957 15.2774 21.2267 15.2774 20.2773V16.4968C15.2774 15.7364 14.6566 15.122 13.8881 15.122H11.1096C10.3412 15.122 9.7204 15.7364 9.7204 16.4968V20.2773C9.7204 21.2267 8.94328 21.9957 7.98384 21.9957H5.55699C5.49187 21.9957 5.42675 21.9914 5.36163 21.9871C5.30953 21.9914 5.25744 21.9957 5.20534 21.9957H4.51072C3.55127 21.9957 2.77415 21.2267 2.77415 20.2773V15.4657C2.77415 15.4271 2.77415 15.3841 2.7785 15.3454V12.3511H1.38925C0.607796 12.3511 0 11.7497 0 10.9721C0 10.5854 0.130242 10.2417 0.43414 9.94103L11.5611 0.343683C11.865 0.0429603 12.2124 0 12.5163 0C12.8202 0 13.1675 0.0859207 13.428 0.300723L24.5159 9.94532C24.8632 10.246 25.0369 10.5897 24.9934 10.9764Z" fill="white"/>
</svg>
