<svg width="36" height="36" viewBox="0 0 36 36" fill="none" xmlns="http://www.w3.org/2000/svg">
<path fill-rule="evenodd" clip-rule="evenodd" d="M7.24246 3.50424C9.13801 1.59117 12.2594 1.9311 13.8465 4.08449L15.8121 6.74698C17.1049 8.49879 16.9897 10.9463 15.4555 12.4941L15.0848 12.8704C15.0427 13.0284 15.0385 13.1942 15.0723 13.3542C15.1704 13.9993 15.7016 15.3653 17.9257 17.6104C20.1499 19.8555 21.505 20.393 22.1498 20.4942C22.3123 20.5274 22.4801 20.5225 22.6405 20.48L23.276 19.8381C24.6404 18.4626 26.7337 18.2049 28.4221 19.1361L31.3971 20.7804C33.9468 22.1844 34.5901 25.7006 32.5029 27.8082L30.2896 30.0406C29.5919 30.7442 28.6542 31.3308 27.511 31.4398C24.6918 31.707 18.1236 31.3655 11.2189 24.3978C4.77529 17.8934 3.53859 12.2206 3.38127 9.42528C3.30339 8.01182 3.96068 6.81655 4.79865 5.97226L7.24246 3.50424ZM11.9774 5.50585C11.1878 4.43548 9.71742 4.35011 8.8888 5.18648L6.44343 7.65292C5.92944 8.17151 5.68334 8.74385 5.71449 9.29089C5.8391 11.5123 6.83594 16.6301 12.8668 22.7172C19.1936 29.1015 25.036 29.2928 27.2945 29.0778C27.7555 29.0351 28.2134 28.7916 28.6417 28.36L30.8535 26.1259C31.7537 25.2184 31.5559 23.5646 30.2819 22.8626L27.3069 21.2199C26.4845 20.7677 25.522 20.9164 24.9239 21.5203L24.2152 22.2365L23.3897 21.3954C24.2152 22.2365 24.2136 22.2381 24.2121 22.2381L24.2105 22.2413L24.2058 22.246L24.1949 22.2555L24.1716 22.2777C24.1058 22.3396 24.035 22.3957 23.9597 22.4452C23.8351 22.529 23.67 22.6223 23.4629 22.6998C23.0423 22.8595 22.4847 22.9449 21.7963 22.8373C20.4459 22.6271 18.6562 21.6927 16.2779 19.2926C13.901 16.8926 12.9727 15.087 12.764 13.7178C12.6565 13.019 12.7422 12.453 12.9011 12.0261C12.9885 11.7859 13.1137 11.5616 13.2718 11.3621L13.3216 11.3067L13.3434 11.283L13.3528 11.2735L13.3574 11.2688L13.3605 11.2656L13.8091 10.8134C14.4758 10.1383 14.5692 9.02053 13.9415 8.16835L11.9774 5.50585Z" fill="white"/>
</svg>
