<svg width="132" height="125" viewBox="0 0 132 125" fill="none" xmlns="http://www.w3.org/2000/svg">
<path d="M6.23577 5.78943C6.00327 5.85144 5.79332 5.97857 5.63061 6.15585C5.4679 6.33313 5.35921 6.5532 5.31733 6.79015C2.38336 22.5933 17.9974 57.8372 38.6135 76.2671C42.2618 79.5531 46.1889 82.5156 50.3505 85.1212C50.1451 91.1716 50.9431 97.1655 53.4678 102.165C60.6472 116.279 77.5048 119.554 84.7059 120.327C85.1004 120.368 85.4992 120.319 85.8714 120.181C86.2436 120.044 86.5792 119.823 86.8522 119.535C87.1252 119.247 87.3282 118.9 87.4455 118.521C87.5628 118.142 87.5913 117.741 87.5287 117.35L83.6678 94.2543C85.4197 94.1396 87.1646 93.9357 88.8958 93.6433C90.0931 93.4542 91.187 92.8536 91.9892 91.9449L100.48 82.4397C101.293 81.5397 101.767 80.3841 101.82 79.1722C101.916 77.4297 101.923 75.6835 101.842 73.9402L125.204 75.18C125.6 75.1976 125.994 75.1239 126.357 74.9648C126.72 74.8056 127.041 74.5651 127.296 74.2619C127.551 73.9588 127.733 73.601 127.828 73.2164C127.923 72.8317 127.928 72.4304 127.843 72.0435C126.294 64.9704 121.144 48.5531 106.317 43.0422C101.06 41.0954 95.0461 40.9743 89.0841 41.8279C86.0294 37.9735 82.6437 34.3934 78.9656 31.1285C58.3684 12.6256 22.3892 1.11194 6.23577 5.78943ZM54.6961 49.9745C53.0809 51.7831 50.9657 53.072 48.6178 53.6783C46.27 54.2847 43.7952 54.1812 41.5062 53.3809C39.2172 52.5806 37.217 51.1195 35.7585 49.1824C34.2999 47.2452 33.4486 44.9191 33.3122 42.4981C33.1757 40.0771 33.7603 37.67 34.9919 35.5813C36.2236 33.4925 38.047 31.8159 40.2315 30.7635C42.4161 29.7111 44.8636 29.3302 47.2647 29.6688C49.6658 30.0075 51.9125 31.0507 53.7207 32.6663C54.9227 33.7378 55.9016 35.0358 56.6013 36.4861C57.301 37.9363 57.7078 39.5104 57.7984 41.1181C57.889 42.7258 57.6616 44.3355 57.1293 45.8552C56.597 47.3749 55.7701 48.7747 54.6961 49.9745Z" stroke="white" stroke-width="8" stroke-linecap="round" stroke-linejoin="round"/>
</svg>
