<svg width="118" height="33" viewBox="0 0 118 33" fill="none" xmlns="http://www.w3.org/2000/svg">
<path d="M5.53711 32.4229C4.2793 32.4229 3.24023 32.1631 2.41992 31.6436C1.59961 31.1377 0.991211 30.5225 0.594727 29.7979C0.198242 29.0732 0 28.3828 0 27.7266C0 27.166 0.116211 26.6465 0.348633 26.168C0.594727 25.6758 1.03223 25.2793 1.66113 24.9785C2.29004 24.6777 3.19238 24.5273 4.36816 24.5273C4.27246 25.0332 4.21094 25.5254 4.18359 26.0039C4.15625 26.4688 4.14258 26.8994 4.14258 27.2959C4.14258 28.1846 4.29297 28.9092 4.59375 29.4697C4.9082 30.0303 5.50293 30.3447 6.37793 30.4131C7.14355 30.4131 7.86133 30.0098 8.53125 29.2031C9.21484 28.3828 9.85059 27.2891 10.4385 25.9219C11.0264 24.5547 11.5732 23.0303 12.0791 21.3486C12.585 19.667 13.043 17.9512 13.4531 16.2012C13.877 14.4375 14.2598 12.7627 14.6016 11.1768C14.9434 9.59082 15.2441 8.20996 15.5039 7.03418C15.7773 5.84473 16.0098 4.99707 16.2012 4.49121C16.584 4.08105 17.0215 3.75293 17.5137 3.50684C18.0195 3.24707 18.6621 3.11719 19.4414 3.11719C19.0039 2.99414 18.5527 2.8916 18.0879 2.80957C17.623 2.72754 17.1377 2.68652 16.6318 2.68652C15.1553 2.68652 13.7402 2.90527 12.3867 3.34277C11.0469 3.78027 9.85742 4.36133 8.81836 5.08594C7.7793 5.81055 6.95898 6.61035 6.35742 7.48535C5.75586 8.34668 5.45508 9.21484 5.45508 10.0898C5.45508 10.8418 5.70801 11.5596 6.21387 12.2432C6.7334 12.9268 7.57422 13.5215 8.73633 14.0273C8.73633 14.4238 8.70215 14.8682 8.63379 15.3604C8.5791 15.8525 8.50391 16.3037 8.4082 16.7139C8.3125 17.1104 8.22363 17.3633 8.1416 17.4727C5.87207 16.543 4.22461 15.4355 3.19922 14.1504C2.1875 12.8652 1.68164 11.5527 1.68164 10.2129C1.68164 8.95508 2.06445 7.73145 2.83008 6.54199C3.60938 5.33887 4.68945 4.25879 6.07031 3.30176C7.45117 2.33105 9.07812 1.55859 10.9512 0.984375C12.8242 0.410156 14.8545 0.123047 17.042 0.123047C18.2861 0.123047 19.5986 0.25293 20.9795 0.512695C22.3604 0.758789 23.748 1.01172 25.1426 1.27148C26.5508 1.51758 27.9111 1.64062 29.2236 1.64062C30.4678 1.64062 31.5889 1.41504 32.5869 0.963867C33.5986 0.512695 34.4531 0.191406 35.1504 0C34.6445 1.72266 33.708 3.08301 32.3408 4.08105C30.9736 5.06543 29.3877 5.55762 27.583 5.55762C26.4346 5.55762 25.334 5.3457 24.2812 4.92188C23.2422 4.49805 22.1895 4.09473 21.123 3.71191C20.7812 5.35254 20.4121 7.19824 20.0156 9.24902C19.6328 11.2861 19.1748 13.3848 18.6416 15.5449C18.1221 17.6914 17.4932 19.7695 16.7549 21.7793C16.0166 23.7754 15.1279 25.5801 14.0889 27.1934C13.0635 28.793 11.8467 30.0645 10.4385 31.0078C9.04395 31.9512 7.41016 32.4229 5.53711 32.4229Z" fill="white"/>
<path d="M35.5051 31.2539V29.6999C36.3451 29.6439 36.9891 29.5739 37.4371 29.4899C37.9131 29.4059 38.3331 29.2239 38.6971 28.9439C39.0891 28.6639 39.2851 28.2719 39.2851 27.7679C39.3971 24.1839 39.4531 19.9279 39.4531 14.9999C39.4531 10.0439 39.3971 6.20791 39.2851 3.49191C39.2571 2.87591 39.0331 2.4699 38.6131 2.2739C38.2211 2.04991 37.4931 1.90991 36.4291 1.8539L35.8411 1.8119V0.257905C37.3531 0.369905 39.2571 0.425905 41.5531 0.425905C43.8491 0.425905 45.6271 0.383905 46.8871 0.299904L57.9331 0.257905L58.4371 0.719904C58.3811 0.943904 58.1851 2.2179 57.8491 4.5419C57.5131 6.8659 57.3311 8.1819 57.3031 8.4899H55.8751C55.3431 5.6339 55.0071 4.0379 54.8671 3.70191C54.7551 3.33791 54.5591 3.0579 54.2791 2.8619C53.3551 2.6099 51.6611 2.4839 49.1971 2.4839C46.7611 2.4839 45.2911 2.5819 44.7871 2.7779C44.2831 2.9459 44.0171 3.3239 43.9891 3.91191C43.9331 5.42391 43.8771 8.75591 43.8211 13.9079C47.7691 13.9079 51.2131 13.8379 54.1531 13.6979L53.7331 16.8059H53.0191C52.0111 16.0779 48.9311 15.7139 43.7791 15.7139C43.7231 19.8579 43.6951 23.8759 43.6951 27.7679C43.6951 28.4399 44.1991 28.8879 45.2071 29.1119C46.2151 29.3079 48.0071 29.4059 50.5831 29.4059C53.1871 29.4059 54.6991 29.2379 55.1191 28.9019C55.8191 28.2859 56.5331 26.5779 57.2611 23.7779L57.8491 21.5099H59.4031C59.3191 22.2379 59.2351 23.9319 59.1511 26.5919C59.0671 29.2519 59.0251 30.8059 59.0251 31.2539H35.5051Z" fill="white"/>
<path d="M61.1523 0.719904L61.6143 0.257905H86.2263L86.6883 0.719904C86.5483 3.09991 86.4783 5.85791 86.4783 8.99391H85.0083C84.2803 6.36191 83.8043 4.82191 83.5803 4.3739C83.4683 4.03791 83.3423 3.72991 83.2023 3.4499C83.0063 3.2539 82.7543 3.12791 82.4463 3.07191C80.9903 2.7919 79.7723 2.6519 78.7923 2.6519C77.8123 2.6519 76.9723 2.7219 76.2723 2.8619C76.0483 8.1539 75.9363 16.4559 75.9363 27.7679C75.9363 28.2719 76.1883 28.6779 76.6923 28.9859C77.2243 29.2659 77.7563 29.4479 78.2883 29.5319C78.8203 29.6159 79.5483 29.6999 80.4723 29.7839V31.2539H67.0323V29.7839C69.2723 29.5879 70.6443 29.2379 71.1483 28.7339C71.4003 28.4819 71.5263 28.1599 71.5263 27.7679C71.6103 22.3359 71.6523 17.2539 71.6523 12.5219C71.6523 7.7619 71.6243 4.5419 71.5683 2.8619C70.8683 2.7219 70.0284 2.6519 69.0483 2.6519C68.0683 2.6519 66.8503 2.7919 65.3943 3.07191C65.0863 3.12791 64.8343 3.2539 64.6383 3.4499C64.4983 3.72991 64.3723 4.03791 64.2603 4.3739C64.0363 4.82191 63.5603 6.36191 62.8323 8.99391H61.3623C61.3623 5.85791 61.2923 3.09991 61.1523 0.719904Z" fill="white"/>
<path d="M102.539 31.5059L93.7611 31.0859C91.3811 31.0859 89.4351 31.1419 87.9231 31.2539V29.6999C88.7631 29.6439 89.4071 29.5739 89.8551 29.4899C90.3311 29.4059 90.7511 29.2239 91.1151 28.9439C91.5071 28.6639 91.7031 28.2719 91.7031 27.7679C91.7031 18.0799 91.6051 9.98791 91.4091 3.49191C91.3811 2.87591 91.1571 2.4699 90.7371 2.2739C90.3451 2.04991 89.6031 1.90991 88.5111 1.8539L87.9231 1.8119V0.257905C89.4351 0.369905 91.4371 0.425905 93.9291 0.425905C96.4491 0.425905 98.5351 0.355905 100.187 0.215905C101.839 0.0759054 102.959 0.00590551 103.547 0.00590551H104.429C108.993 0.00590551 112.325 1.12591 114.425 3.3659C116.525 5.6059 117.575 9.17591 117.575 14.0759C117.575 16.5959 117.267 18.8779 116.651 20.9219C116.063 22.9659 115.279 24.6319 114.299 25.9199C113.347 27.2079 112.241 28.2859 110.981 29.1539C108.657 30.7219 106.137 31.5059 103.421 31.5059H102.539ZM95.7771 25.3739C95.7771 26.7739 96.3231 27.7119 97.4151 28.1879C98.5351 28.6639 100.761 28.9019 104.093 28.9019C106.137 28.9019 107.649 28.5379 108.629 27.8099C109.609 27.0539 110.617 25.7379 111.653 23.8619C112.717 21.9859 113.249 19.1719 113.249 15.4199C113.249 10.8279 112.339 7.46791 110.519 5.3399C108.727 3.18391 105.885 2.10591 101.993 2.10591C99.3051 2.10591 97.4991 2.25991 96.5751 2.5679L96.1131 3.0299C95.8891 8.96591 95.7771 16.4139 95.7771 25.3739Z" fill="white"/>
</svg>
